<?xml version="1.0" standalone="no"?>
<!DOCTYPE svg PUBLIC "-//W3C//DTD SVG 20010904//EN"
 "http://www.w3.org/TR/2001/REC-SVG-20010904/DTD/svg10.dtd">
<svg version="1.0" xmlns="http://www.w3.org/2000/svg"
 width="200.000000pt" height="200.000000pt" viewBox="0 0 200.000000 200.000000"
 preserveAspectRatio="xMidYMid meet">

<g transform="translate(0.000000,200.000000) scale(0.100000,-0.100000)"
fill="#dd4451" stroke="none">
<path d="M890 1615 l0 -88 -22 18 c-13 10 18 -23 69 -72 l92 -90 -65 -89 c-36
-49 -74 -99 -85 -112 -23 -27 -23 -27 54 -115 33 -37 58 -69 56 -71 -2 -2 -28
-15 -56 -30 -29 -14 -53 -29 -53 -31 0 -3 26 8 58 24 41 20 76 30 125 33 37 2
67 1 67 -3 0 -8 -237 -138 -284 -155 -26 -10 -18 -12 71 -18 86 -6 105 -5 127
9 20 14 26 14 26 4 1 -8 6 -4 13 9 7 12 46 45 87 73 110 75 110 75 53 83 l-48
6 -29 80 c-16 45 -27 83 -24 85 2 2 32 -18 65 -45 43 -35 63 -58 66 -77 2 -16
2 4 0 42 -2 39 -7 78 -9 87 -4 13 3 17 32 20 l37 3 -49 33 c-49 34 -49 34 -14
3 l35 -30 -78 -1 c-60 0 -76 3 -71 13 5 8 2 7 -9 -2 -10 -8 -19 -12 -21 -10
-2 2 -20 49 -39 104 -32 88 -160 381 -172 394 -3 2 -5 -35 -5 -84z"/>
<path d="M761 1613 c1 -19 3 -22 6 -10 4 17 8 16 36 -9 30 -27 30 -27 -2 9
-19 20 -36 37 -38 37 -2 0 -2 -12 -2 -27z"/>
<path d="M771 1564 c0 -11 3 -14 6 -6 3 7 2 16 -1 19 -3 4 -6 -2 -5 -13z"/>
<path d="M791 1474 c0 -11 3 -14 6 -6 3 7 2 16 -1 19 -3 4 -6 -2 -5 -13z"/>
<path d="M802 1430 c0 -14 2 -19 5 -12 2 6 2 18 0 25 -3 6 -5 1 -5 -13z"/>
<path d="M812 1380 c0 -14 2 -19 5 -12 2 6 2 18 0 25 -3 6 -5 1 -5 -13z"/>
<path d="M821 1334 c0 -11 3 -14 6 -6 3 7 2 16 -1 19 -3 4 -6 -2 -5 -13z"/>
<path d="M832 1290 c0 -14 2 -19 5 -12 2 6 2 18 0 25 -3 6 -5 1 -5 -13z"/>
<path d="M842 1245 c0 -11 4 -31 8 -45 6 -20 8 -21 8 -5 0 11 -4 31 -8 45 -6
20 -8 21 -8 5z"/>
<path d="M713 853 c-26 -10 -12 -23 25 -22 30 2 32 3 9 6 -15 2 -25 9 -22 14
7 10 6 10 -12 2z"/>
<path d="M1032 784 c10 -10 20 -16 22 -13 3 3 -5 11 -17 18 -21 13 -21 12 -5
-5z"/>
</g>
</svg>
